<?xml version="1.0" encoding="UTF-8"?><svg xmlns="http://www.w3.org/2000/svg" viewBox="0 0 87 11.45"><defs><style>.f{fill:#fff;}.g{fill:#ce1cd3;}</style></defs><g id="a"/><g id="b"><g id="c"><g id="d"><g id="e"><g><path class="g" d="M2.6,11.45c-.64,0-1.17-.11-1.59-.33-.42-.22-.76-.53-1.01-.93l1.25-1.04c.16,.26,.39,.47,.68,.63s.62,.23,.98,.23c.29,0,.57-.05,.83-.17,.27-.11,.5-.29,.7-.53s.34-.56,.42-.94l.12-.61c-.25,.36-.56,.64-.94,.83-.38,.19-.77,.29-1.16,.29-.43,0-.8-.11-1.11-.33s-.54-.52-.7-.89c-.16-.38-.24-.8-.24-1.26,0-.54,.1-1.04,.29-1.52s.45-.9,.79-1.26c.33-.36,.71-.65,1.14-.86s.88-.32,1.36-.32c.45,0,.82,.1,1.11,.3s.5,.48,.62,.84l.23-1.04h1.67l-1.25,5.83c-.13,.63-.39,1.18-.79,1.64s-.89,.81-1.47,1.06c-.58,.25-1.22,.37-1.91,.37h-.02Zm1.28-4.07c.13,0,.26-.02,.38-.07,.13-.05,.25-.11,.37-.19s.23-.18,.34-.29,.2-.24,.29-.37l.29-1.31c-.03-.22-.1-.41-.2-.57s-.23-.28-.37-.37c-.14-.08-.3-.13-.48-.13-.22,0-.43,.06-.63,.17-.2,.12-.37,.27-.53,.47s-.28,.41-.37,.65c-.09,.24-.13,.49-.13,.74,0,.23,.04,.44,.13,.64,.08,.19,.21,.34,.37,.45,.16,.11,.35,.16,.56,.16l-.02,.02Z"/><path class="g" d="M9.32,2.54h1.76l-.28,1.26c.3-.42,.64-.75,1.01-.98,.37-.24,.74-.36,1.1-.36h.19s.07,0,.09,0l-.36,1.72c-.43,0-.84,.07-1.22,.21s-.69,.35-.91,.63l-.8,3.74h-1.92l1.34-6.23Z"/><path class="g" d="M15.55,8.89c-.54,0-1.01-.11-1.41-.33s-.7-.53-.91-.93-.32-.85-.32-1.37,.1-1.02,.31-1.48,.5-.86,.86-1.21c.37-.35,.8-.63,1.29-.83,.49-.2,1.02-.3,1.59-.3,.48,0,.89,.07,1.24,.21s.62,.34,.8,.6,.28,.58,.28,.96c0,.67-.31,1.18-.94,1.53s-1.56,.53-2.8,.53c-.24,0-.5,0-.79-.02-.28-.01-.58-.03-.88-.07l.24-1.18c.26,.02,.5,.04,.73,.05,.23,.01,.46,.02,.7,.02,.47,0,.85-.03,1.12-.07,.28-.05,.47-.13,.59-.24s.18-.24,.18-.39c0-.12-.03-.22-.1-.3-.07-.08-.16-.14-.28-.19s-.25-.07-.41-.07c-.26,0-.51,.07-.73,.2-.22,.13-.42,.32-.58,.55s-.29,.5-.38,.8-.14,.62-.14,.96c0,.24,.04,.45,.11,.63,.07,.17,.19,.31,.35,.4,.16,.09,.37,.14,.62,.14,.29,0,.55-.07,.8-.2,.24-.14,.44-.32,.59-.56l1.51,.48c-.22,.33-.5,.62-.85,.87-.35,.25-.73,.45-1.15,.59-.41,.14-.83,.21-1.25,.21h.01Z"/><path class="g" d="M22.25,8.89c-.54,0-1.01-.11-1.41-.33s-.7-.53-.91-.93-.32-.85-.32-1.37,.1-1.02,.31-1.48,.5-.86,.86-1.21c.37-.35,.8-.63,1.29-.83,.49-.2,1.02-.3,1.59-.3,.48,0,.89,.07,1.24,.21s.62,.34,.8,.6,.28,.58,.28,.96c0,.67-.31,1.18-.94,1.53s-1.56,.53-2.8,.53c-.24,0-.5,0-.79-.02-.28-.01-.58-.03-.88-.07l.24-1.18c.26,.02,.5,.04,.73,.05s.46,.02,.7,.02c.47,0,.85-.03,1.12-.07,.28-.05,.47-.13,.59-.24s.18-.24,.18-.39c0-.12-.03-.22-.1-.3-.07-.08-.16-.14-.28-.19s-.25-.07-.41-.07c-.26,0-.51,.07-.73,.2s-.42,.32-.58,.55-.29,.5-.38,.8c-.09,.3-.14,.62-.14,.96,0,.24,.04,.45,.11,.63,.07,.17,.19,.31,.35,.4s.37,.14,.62,.14c.29,0,.55-.07,.8-.2,.24-.14,.44-.32,.59-.56l1.51,.48c-.22,.33-.5,.62-.85,.87-.35,.25-.73,.45-1.15,.59-.41,.14-.83,.21-1.25,.21h0Z"/><path class="g" d="M27.38,2.54h1.73l-.23,1.06c.2-.24,.43-.45,.7-.63s.55-.31,.87-.4c.31-.09,.64-.14,.99-.14,.38,0,.66,.07,.86,.2s.34,.31,.43,.53,.13,.45,.13,.7c0,.16,0,.31-.04,.47s-.05,.31-.07,.46l-.85,3.97h-1.92l.76-3.47c.02-.09,.03-.18,.04-.25,0-.07,.01-.15,.01-.22,0-.24-.05-.42-.16-.53s-.25-.17-.41-.17c-.15,0-.32,.05-.5,.14-.18,.09-.36,.22-.53,.38s-.32,.35-.44,.55l-.77,3.56h-1.92l1.34-6.23-.02,.02Z"/><path class="g" d="M36.77,8.89c-.46,0-.83-.1-1.12-.3s-.5-.48-.62-.85l-.22,1.03h-1.68L34.99,0h1.92l-.74,3.57c.26-.35,.57-.62,.95-.83s.77-.31,1.18-.31c.44,0,.81,.11,1.12,.33s.53,.52,.69,.9c.16,.38,.23,.8,.23,1.28,0,.54-.1,1.05-.29,1.53s-.46,.89-.8,1.25c-.34,.36-.72,.64-1.15,.85s-.87,.31-1.33,.31Zm-.17-1.62c.22,0,.44-.05,.65-.16s.39-.25,.55-.42c.16-.18,.29-.38,.38-.62,.1-.24,.14-.48,.14-.74,0-.24-.04-.46-.12-.64-.08-.19-.19-.34-.33-.45-.14-.11-.31-.17-.52-.17-.18,0-.36,.05-.55,.14-.19,.09-.37,.22-.53,.38s-.31,.34-.43,.54l-.29,1.3c.05,.18,.12,.33,.22,.45,.1,.12,.21,.22,.35,.29s.3,.1,.47,.1h0Z"/><path class="g" d="M43.04,8.89c-.46,0-.86-.11-1.19-.33s-.59-.52-.77-.9c-.18-.38-.27-.81-.27-1.29,0-.53,.09-1.03,.28-1.5,.18-.47,.44-.89,.76-1.25s.69-.64,1.1-.86c.41-.21,.85-.32,1.3-.32,.41,0,.76,.1,1.05,.31s.49,.48,.59,.82l.22-1.04h1.93l-.89,3.99s0,.09-.02,.13,0,.08,0,.12c0,.18,.1,.27,.3,.28l-.34,1.62c-.18,.03-.33,.06-.47,.07-.14,.02-.25,.02-.35,.02-.31,0-.56-.06-.74-.17s-.28-.3-.28-.56v-.09s0-.06,0-.1c0-.04,.02-.08,.02-.12-.3,.39-.64,.67-1.04,.86-.4,.19-.8,.28-1.21,.28v.03Zm.87-1.62c.12,0,.24-.02,.37-.06,.12-.04,.25-.1,.37-.17s.24-.16,.35-.26c.11-.11,.21-.22,.3-.35l.28-1.3c-.02-.21-.09-.39-.19-.54s-.23-.28-.38-.37c-.15-.09-.31-.14-.48-.14-.22,0-.44,.05-.64,.16-.2,.11-.38,.26-.53,.44-.16,.19-.28,.4-.37,.63s-.14,.48-.14,.74c0,.23,.04,.44,.13,.62,.08,.18,.21,.33,.37,.43s.35,.16,.58,.16h-.02Z"/><path class="g" d="M49.51,2.54h1.73l-.23,1.06c.2-.24,.43-.45,.7-.63s.55-.31,.87-.4c.32-.09,.65-.14,.99-.14,.38,0,.66,.07,.86,.2s.34,.31,.43,.53,.13,.45,.13,.7c0,.16,0,.31-.04,.47-.02,.15-.05,.31-.07,.46l-.85,3.97h-1.92l.76-3.47c.02-.09,.03-.18,.04-.25,0-.07,0-.15,0-.22,0-.24-.05-.42-.16-.53s-.25-.17-.41-.17c-.15,0-.32,.05-.5,.14-.18,.09-.36,.22-.53,.38s-.32,.35-.44,.55l-.77,3.56h-1.92l1.34-6.23-.02,.02Z"/><path class="g" d="M57.12,0h1.91l-1.86,8.76h-1.91L57.12,0Zm1.1,6.06c.63-.12,1.12-.31,1.48-.58,.35-.27,.53-.56,.53-.88,0-.17-.05-.31-.15-.4-.1-.09-.23-.14-.38-.14-.26,0-.52,.1-.8,.31s-.53,.48-.76,.82-.39,.71-.5,1.11l.32-1.89c.22-.4,.47-.76,.74-1.05,.27-.3,.56-.53,.88-.69s.66-.24,1.02-.24c.44,0,.77,.12,1,.38,.23,.25,.34,.59,.34,1.03,0,.53-.15,1.02-.44,1.46s-.71,.81-1.27,1.1l1.07,2.36h-2.04l-1.06-2.7h.02Z"/><path class="f" d="M62.03,8.77l.71-3.42h2.75l-.74,3.42h-2.72Z"/><path class="f" d="M68.53,8.89c-.46,0-.86-.11-1.19-.33s-.59-.52-.77-.9c-.18-.38-.27-.81-.27-1.29,0-.53,.09-1.03,.28-1.5,.18-.47,.44-.89,.76-1.25s.69-.64,1.1-.86c.41-.21,.85-.32,1.3-.32,.41,0,.76,.1,1.05,.31s.49,.48,.59,.82l.74-3.57h1.93l-1.42,6.6s-.01,.09-.02,.13v.12c0,.18,.1,.28,.3,.29l-.34,1.62c-.18,.03-.33,.06-.47,.07-.14,.02-.25,.02-.35,.02-.31,0-.56-.06-.75-.18s-.28-.31-.28-.58v-.1s0-.07,.02-.12,.02-.09,.02-.15c-.3,.39-.64,.67-1.04,.86s-.8,.28-1.21,.28l.02,.03Zm.86-1.62c.12,0,.24-.02,.37-.06,.12-.04,.25-.1,.37-.17s.24-.16,.35-.26c.11-.11,.21-.22,.3-.35l.28-1.3c-.02-.21-.09-.39-.19-.54-.1-.15-.23-.28-.38-.37-.15-.09-.31-.14-.48-.14-.22,0-.44,.05-.64,.16-.2,.11-.38,.26-.53,.44-.16,.19-.28,.4-.37,.63s-.14,.48-.14,.74c0,.23,.04,.44,.13,.62,.08,.18,.21,.33,.37,.43s.35,.16,.58,.16h-.02Z"/><path class="f" d="M76.52,8.89c-.54,0-1.01-.11-1.41-.33s-.7-.53-.91-.93c-.21-.4-.32-.85-.32-1.37s.1-1.02,.31-1.48,.5-.86,.86-1.21c.37-.35,.8-.63,1.29-.83,.49-.2,1.02-.3,1.59-.3,.48,0,.89,.07,1.24,.21s.62,.34,.8,.6c.19,.26,.28,.58,.28,.96,0,.67-.31,1.18-.94,1.53s-1.56,.53-2.8,.53c-.24,0-.5,0-.79-.02s-.58-.03-.88-.07l.24-1.18c.26,.02,.5,.04,.73,.05s.46,.02,.7,.02c.47,0,.85-.03,1.12-.07,.28-.05,.47-.13,.59-.24s.18-.24,.18-.39c0-.12-.03-.22-.1-.3-.07-.08-.16-.14-.28-.19-.12-.05-.25-.07-.41-.07-.26,0-.51,.07-.73,.2s-.42,.32-.58,.55-.29,.5-.38,.8-.14,.62-.14,.96c0,.24,.04,.45,.11,.63,.07,.17,.19,.31,.35,.4s.37,.14,.62,.14c.29,0,.55-.07,.8-.2s.44-.32,.59-.56l1.51,.48c-.22,.33-.5,.62-.85,.87-.35,.25-.73,.45-1.15,.59-.41,.14-.83,.21-1.25,.21h.01Z"/><path class="f" d="M80.88,2.54h1.99l.2,4.71c.26-.44,.5-.85,.71-1.23s.4-.75,.57-1.12,.33-.74,.48-1.13c.15-.38,.3-.79,.43-1.23h1.74c-.29,1.03-.72,2.06-1.31,3.11-.58,1.04-1.28,2.08-2.09,3.12h-1.99l-.74-6.23h0Z"/></g></g></g></g></g></svg>